<mxfile host="app.diagrams.net" agent="Mozilla/5.0 (Windows NT 10.0; Win64; x64) AppleWebKit/537.36 (KHTML, like Gecko) Chrome/127.0.0.0 Safari/537.36 SberBrowser/19.0.0.0" version="24.7.17">
  <diagram name="Page-1" id="9f46799a-70d6-7492-0946-bef42562c5a5">
    <mxGraphModel dx="949" dy="505" grid="0" gridSize="10" guides="1" tooltips="1" connect="1" arrows="1" fold="1" page="1" pageScale="1" pageWidth="1100" pageHeight="850" background="none" math="0" shadow="0">
      <root>
        <mxCell id="0" />
        <mxCell id="1" parent="0" />
        <mxCell id="NS6MXJYAzT7x-2VZBriJ-9" style="edgeStyle=orthogonalEdgeStyle;rounded=0;orthogonalLoop=1;jettySize=auto;html=1;exitX=0.46;exitY=1.022;exitDx=0;exitDy=0;entryX=0.5;entryY=0;entryDx=0;entryDy=0;exitPerimeter=0;" edge="1" parent="1" source="NS6MXJYAzT7x-2VZBriJ-256" target="NS6MXJYAzT7x-2VZBriJ-5">
          <mxGeometry relative="1" as="geometry">
            <mxPoint x="110" y="110" as="targetPoint" />
          </mxGeometry>
        </mxCell>
        <mxCell id="NS6MXJYAzT7x-2VZBriJ-5" value="TRANSFORMATION:&amp;nbsp;&lt;span style=&quot;text-align: left;&quot;&gt;GROUP BY&lt;/span&gt;" style="swimlane;fontStyle=1;align=center;verticalAlign=top;childLayout=stackLayout;horizontal=1;startSize=26;horizontalStack=0;resizeParent=1;resizeParentMax=0;resizeLast=0;collapsible=1;marginBottom=0;whiteSpace=wrap;html=1;flipV=0;flipH=1;" vertex="1" parent="1">
          <mxGeometry x="150" y="170" width="423" height="268.42862665085556" as="geometry">
            <mxRectangle x="150" y="170" width="257" height="47" as="alternateBounds" />
          </mxGeometry>
        </mxCell>
        <mxCell id="NS6MXJYAzT7x-2VZBriJ-206" value="aggregate by" style="shape=table;startSize=30;container=1;collapsible=0;childLayout=tableLayout;strokeColor=default;fontSize=16;" vertex="1" parent="NS6MXJYAzT7x-2VZBriJ-5">
          <mxGeometry y="26" width="423" height="112.42862665085556" as="geometry" />
        </mxCell>
        <mxCell id="NS6MXJYAzT7x-2VZBriJ-207" value="" style="shape=tableRow;horizontal=0;startSize=0;swimlaneHead=0;swimlaneBody=0;strokeColor=inherit;top=0;left=0;bottom=0;right=0;collapsible=0;dropTarget=0;fillColor=none;points=[[0,0.5],[1,0.5]];portConstraint=eastwest;fontSize=16;" vertex="1" parent="NS6MXJYAzT7x-2VZBriJ-206">
          <mxGeometry y="30" width="423" height="20" as="geometry" />
        </mxCell>
        <mxCell id="NS6MXJYAzT7x-2VZBriJ-208" value="&lt;span style=&quot;font-weight: 700; font-size: 11px;&quot;&gt;type&lt;/span&gt;" style="shape=partialRectangle;html=1;whiteSpace=wrap;connectable=0;strokeColor=inherit;overflow=hidden;fillColor=none;top=0;left=0;bottom=0;right=0;pointerEvents=1;fontSize=11;" vertex="1" parent="NS6MXJYAzT7x-2VZBriJ-207">
          <mxGeometry width="212" height="20" as="geometry">
            <mxRectangle width="212" height="20" as="alternateBounds" />
          </mxGeometry>
        </mxCell>
        <mxCell id="NS6MXJYAzT7x-2VZBriJ-209" value="&lt;span style=&quot;font-weight: 700; font-size: 11px;&quot;&gt;value&lt;/span&gt;" style="shape=partialRectangle;html=1;whiteSpace=wrap;connectable=0;strokeColor=inherit;overflow=hidden;fillColor=none;top=0;left=0;bottom=0;right=0;pointerEvents=1;fontSize=11;" vertex="1" parent="NS6MXJYAzT7x-2VZBriJ-207">
          <mxGeometry x="212" width="211" height="20" as="geometry">
            <mxRectangle width="211" height="20" as="alternateBounds" />
          </mxGeometry>
        </mxCell>
        <mxCell id="NS6MXJYAzT7x-2VZBriJ-211" value="" style="shape=tableRow;horizontal=0;startSize=0;swimlaneHead=0;swimlaneBody=0;strokeColor=inherit;top=0;left=0;bottom=0;right=0;collapsible=0;dropTarget=0;fillColor=none;points=[[0,0.5],[1,0.5]];portConstraint=eastwest;fontSize=16;" vertex="1" parent="NS6MXJYAzT7x-2VZBriJ-206">
          <mxGeometry y="50" width="423" height="22" as="geometry" />
        </mxCell>
        <mxCell id="NS6MXJYAzT7x-2VZBriJ-212" value="&lt;span style=&quot;font-size: 11px;&quot;&gt;expression&lt;/span&gt;" style="shape=partialRectangle;html=1;whiteSpace=wrap;connectable=0;strokeColor=inherit;overflow=hidden;fillColor=none;top=0;left=0;bottom=0;right=0;pointerEvents=1;fontSize=11;" vertex="1" parent="NS6MXJYAzT7x-2VZBriJ-211">
          <mxGeometry width="212" height="22" as="geometry">
            <mxRectangle width="212" height="22" as="alternateBounds" />
          </mxGeometry>
        </mxCell>
        <mxCell id="NS6MXJYAzT7x-2VZBriJ-213" value="&lt;span style=&quot;font-size: 11px;&quot;&gt;LAST_DAY(TO_DATE(date))&lt;/span&gt;" style="shape=partialRectangle;html=1;whiteSpace=wrap;connectable=0;strokeColor=inherit;overflow=hidden;fillColor=none;top=0;left=0;bottom=0;right=0;pointerEvents=1;fontSize=11;" vertex="1" parent="NS6MXJYAzT7x-2VZBriJ-211">
          <mxGeometry x="212" width="211" height="22" as="geometry">
            <mxRectangle width="211" height="22" as="alternateBounds" />
          </mxGeometry>
        </mxCell>
        <mxCell id="NS6MXJYAzT7x-2VZBriJ-215" value="" style="shape=tableRow;horizontal=0;startSize=0;swimlaneHead=0;swimlaneBody=0;strokeColor=inherit;top=0;left=0;bottom=0;right=0;collapsible=0;dropTarget=0;fillColor=none;points=[[0,0.5],[1,0.5]];portConstraint=eastwest;fontSize=16;" vertex="1" parent="NS6MXJYAzT7x-2VZBriJ-206">
          <mxGeometry y="72" width="423" height="20" as="geometry" />
        </mxCell>
        <mxCell id="NS6MXJYAzT7x-2VZBriJ-216" value="&lt;span style=&quot;font-size: 11px;&quot;&gt;field&lt;/span&gt;" style="shape=partialRectangle;html=1;whiteSpace=wrap;connectable=0;strokeColor=inherit;overflow=hidden;fillColor=none;top=0;left=0;bottom=0;right=0;pointerEvents=1;fontSize=11;" vertex="1" parent="NS6MXJYAzT7x-2VZBriJ-215">
          <mxGeometry width="212" height="20" as="geometry">
            <mxRectangle width="212" height="20" as="alternateBounds" />
          </mxGeometry>
        </mxCell>
        <mxCell id="NS6MXJYAzT7x-2VZBriJ-217" value="&lt;span style=&quot;font-size: 11px;&quot;&gt;client_id&lt;/span&gt;" style="shape=partialRectangle;html=1;whiteSpace=wrap;connectable=0;strokeColor=inherit;overflow=hidden;fillColor=none;top=0;left=0;bottom=0;right=0;pointerEvents=1;fontSize=11;" vertex="1" parent="NS6MXJYAzT7x-2VZBriJ-215">
          <mxGeometry x="212" width="211" height="20" as="geometry">
            <mxRectangle width="211" height="20" as="alternateBounds" />
          </mxGeometry>
        </mxCell>
        <mxCell id="NS6MXJYAzT7x-2VZBriJ-232" style="shape=tableRow;horizontal=0;startSize=0;swimlaneHead=0;swimlaneBody=0;strokeColor=inherit;top=0;left=0;bottom=0;right=0;collapsible=0;dropTarget=0;fillColor=none;points=[[0,0.5],[1,0.5]];portConstraint=eastwest;fontSize=16;" vertex="1" parent="NS6MXJYAzT7x-2VZBriJ-206">
          <mxGeometry y="92" width="423" height="20" as="geometry" />
        </mxCell>
        <mxCell id="NS6MXJYAzT7x-2VZBriJ-233" value="&lt;span style=&quot;font-size: 11px;&quot;&gt;field&lt;/span&gt;" style="shape=partialRectangle;html=1;whiteSpace=wrap;connectable=0;strokeColor=inherit;overflow=hidden;fillColor=none;top=0;left=0;bottom=0;right=0;pointerEvents=1;fontSize=11;" vertex="1" parent="NS6MXJYAzT7x-2VZBriJ-232">
          <mxGeometry width="212" height="20" as="geometry">
            <mxRectangle width="212" height="20" as="alternateBounds" />
          </mxGeometry>
        </mxCell>
        <mxCell id="NS6MXJYAzT7x-2VZBriJ-234" value="&lt;span style=&quot;font-size: 11px;&quot;&gt;region_id&lt;/span&gt;" style="shape=partialRectangle;html=1;whiteSpace=wrap;connectable=0;strokeColor=inherit;overflow=hidden;fillColor=none;top=0;left=0;bottom=0;right=0;pointerEvents=1;fontSize=11;" vertex="1" parent="NS6MXJYAzT7x-2VZBriJ-232">
          <mxGeometry x="212" width="211" height="20" as="geometry">
            <mxRectangle width="211" height="20" as="alternateBounds" />
          </mxGeometry>
        </mxCell>
        <mxCell id="NS6MXJYAzT7x-2VZBriJ-219" value="aggregations" style="shape=table;startSize=30;container=1;collapsible=0;childLayout=tableLayout;strokeColor=default;fontSize=16;" vertex="1" parent="NS6MXJYAzT7x-2VZBriJ-5">
          <mxGeometry y="138.42862665085556" width="423" height="130" as="geometry" />
        </mxCell>
        <mxCell id="NS6MXJYAzT7x-2VZBriJ-220" value="" style="shape=tableRow;horizontal=0;startSize=0;swimlaneHead=0;swimlaneBody=0;strokeColor=inherit;top=0;left=0;bottom=0;right=0;collapsible=0;dropTarget=0;fillColor=none;points=[[0,0.5],[1,0.5]];portConstraint=eastwest;fontSize=16;" vertex="1" parent="NS6MXJYAzT7x-2VZBriJ-219">
          <mxGeometry y="30" width="423" height="20" as="geometry" />
        </mxCell>
        <mxCell id="NS6MXJYAzT7x-2VZBriJ-221" value="&lt;span style=&quot;font-weight: 700; font-size: 11px;&quot;&gt;type&lt;/span&gt;" style="shape=partialRectangle;html=1;whiteSpace=wrap;connectable=0;strokeColor=inherit;overflow=hidden;fillColor=none;top=0;left=0;bottom=0;right=0;pointerEvents=1;fontSize=11;" vertex="1" parent="NS6MXJYAzT7x-2VZBriJ-220">
          <mxGeometry width="106" height="20" as="geometry">
            <mxRectangle width="106" height="20" as="alternateBounds" />
          </mxGeometry>
        </mxCell>
        <mxCell id="NS6MXJYAzT7x-2VZBriJ-222" value="value" style="shape=partialRectangle;html=1;whiteSpace=wrap;connectable=0;strokeColor=inherit;overflow=hidden;fillColor=none;top=0;left=0;bottom=0;right=0;pointerEvents=1;fontSize=11;fontStyle=1" vertex="1" parent="NS6MXJYAzT7x-2VZBriJ-220">
          <mxGeometry x="106" width="106" height="20" as="geometry">
            <mxRectangle width="106" height="20" as="alternateBounds" />
          </mxGeometry>
        </mxCell>
        <mxCell id="NS6MXJYAzT7x-2VZBriJ-235" value="field" style="shape=partialRectangle;html=1;whiteSpace=wrap;connectable=0;strokeColor=inherit;overflow=hidden;fillColor=none;top=0;left=0;bottom=0;right=0;pointerEvents=1;fontSize=11;fontStyle=1" vertex="1" parent="NS6MXJYAzT7x-2VZBriJ-220">
          <mxGeometry x="212" width="105" height="20" as="geometry">
            <mxRectangle width="105" height="20" as="alternateBounds" />
          </mxGeometry>
        </mxCell>
        <mxCell id="NS6MXJYAzT7x-2VZBriJ-223" value="name" style="shape=partialRectangle;html=1;whiteSpace=wrap;connectable=0;strokeColor=inherit;overflow=hidden;fillColor=none;top=0;left=0;bottom=0;right=0;pointerEvents=1;fontSize=11;fontStyle=1" vertex="1" parent="NS6MXJYAzT7x-2VZBriJ-220">
          <mxGeometry x="317" width="106" height="20" as="geometry">
            <mxRectangle width="106" height="20" as="alternateBounds" />
          </mxGeometry>
        </mxCell>
        <mxCell id="NS6MXJYAzT7x-2VZBriJ-224" value="" style="shape=tableRow;horizontal=0;startSize=0;swimlaneHead=0;swimlaneBody=0;strokeColor=inherit;top=0;left=0;bottom=0;right=0;collapsible=0;dropTarget=0;fillColor=none;points=[[0,0.5],[1,0.5]];portConstraint=eastwest;fontSize=16;" vertex="1" parent="NS6MXJYAzT7x-2VZBriJ-219">
          <mxGeometry y="50" width="423" height="20" as="geometry" />
        </mxCell>
        <mxCell id="NS6MXJYAzT7x-2VZBriJ-225" value="function" style="shape=partialRectangle;html=1;whiteSpace=wrap;connectable=0;strokeColor=inherit;overflow=hidden;fillColor=none;top=0;left=0;bottom=0;right=0;pointerEvents=1;fontSize=11;" vertex="1" parent="NS6MXJYAzT7x-2VZBriJ-224">
          <mxGeometry width="106" height="20" as="geometry">
            <mxRectangle width="106" height="20" as="alternateBounds" />
          </mxGeometry>
        </mxCell>
        <mxCell id="NS6MXJYAzT7x-2VZBriJ-226" value="FIRST" style="shape=partialRectangle;html=1;whiteSpace=wrap;connectable=0;strokeColor=inherit;overflow=hidden;fillColor=none;top=0;left=0;bottom=0;right=0;pointerEvents=1;fontSize=11;" vertex="1" parent="NS6MXJYAzT7x-2VZBriJ-224">
          <mxGeometry x="106" width="106" height="20" as="geometry">
            <mxRectangle width="106" height="20" as="alternateBounds" />
          </mxGeometry>
        </mxCell>
        <mxCell id="NS6MXJYAzT7x-2VZBriJ-236" value="client_id" style="shape=partialRectangle;html=1;whiteSpace=wrap;connectable=0;strokeColor=inherit;overflow=hidden;fillColor=none;top=0;left=0;bottom=0;right=0;pointerEvents=1;fontSize=11;" vertex="1" parent="NS6MXJYAzT7x-2VZBriJ-224">
          <mxGeometry x="212" width="105" height="20" as="geometry">
            <mxRectangle width="105" height="20" as="alternateBounds" />
          </mxGeometry>
        </mxCell>
        <mxCell id="NS6MXJYAzT7x-2VZBriJ-227" value="client_id" style="shape=partialRectangle;html=1;whiteSpace=wrap;connectable=0;strokeColor=inherit;overflow=hidden;fillColor=none;top=0;left=0;bottom=0;right=0;pointerEvents=1;fontSize=11;" vertex="1" parent="NS6MXJYAzT7x-2VZBriJ-224">
          <mxGeometry x="317" width="106" height="20" as="geometry">
            <mxRectangle width="106" height="20" as="alternateBounds" />
          </mxGeometry>
        </mxCell>
        <mxCell id="NS6MXJYAzT7x-2VZBriJ-228" value="" style="shape=tableRow;horizontal=0;startSize=0;swimlaneHead=0;swimlaneBody=0;strokeColor=inherit;top=0;left=0;bottom=0;right=0;collapsible=0;dropTarget=0;fillColor=none;points=[[0,0.5],[1,0.5]];portConstraint=eastwest;fontSize=16;" vertex="1" parent="NS6MXJYAzT7x-2VZBriJ-219">
          <mxGeometry y="70" width="423" height="20" as="geometry" />
        </mxCell>
        <mxCell id="NS6MXJYAzT7x-2VZBriJ-229" value="expression" style="shape=partialRectangle;html=1;whiteSpace=wrap;connectable=0;strokeColor=inherit;overflow=hidden;fillColor=none;top=0;left=0;bottom=0;right=0;pointerEvents=1;fontSize=11;" vertex="1" parent="NS6MXJYAzT7x-2VZBriJ-228">
          <mxGeometry width="106" height="20" as="geometry">
            <mxRectangle width="106" height="20" as="alternateBounds" />
          </mxGeometry>
        </mxCell>
        <mxCell id="NS6MXJYAzT7x-2VZBriJ-230" value="FIRST(LAST_DAY(TO_DATE(date)))" style="shape=partialRectangle;html=1;whiteSpace=wrap;connectable=0;strokeColor=inherit;overflow=hidden;fillColor=none;top=0;left=0;bottom=0;right=0;pointerEvents=1;fontSize=11;" vertex="1" parent="NS6MXJYAzT7x-2VZBriJ-228">
          <mxGeometry x="106" width="106" height="20" as="geometry">
            <mxRectangle width="106" height="20" as="alternateBounds" />
          </mxGeometry>
        </mxCell>
        <mxCell id="NS6MXJYAzT7x-2VZBriJ-237" style="shape=partialRectangle;html=1;whiteSpace=wrap;connectable=0;strokeColor=inherit;overflow=hidden;fillColor=none;top=0;left=0;bottom=0;right=0;pointerEvents=1;fontSize=11;" vertex="1" parent="NS6MXJYAzT7x-2VZBriJ-228">
          <mxGeometry x="212" width="105" height="20" as="geometry">
            <mxRectangle width="105" height="20" as="alternateBounds" />
          </mxGeometry>
        </mxCell>
        <mxCell id="NS6MXJYAzT7x-2VZBriJ-231" value="" style="shape=partialRectangle;html=1;whiteSpace=wrap;connectable=0;strokeColor=inherit;overflow=hidden;fillColor=none;top=0;left=0;bottom=0;right=0;pointerEvents=1;fontSize=11;" vertex="1" parent="NS6MXJYAzT7x-2VZBriJ-228">
          <mxGeometry x="317" width="106" height="20" as="geometry">
            <mxRectangle width="106" height="20" as="alternateBounds" />
          </mxGeometry>
        </mxCell>
        <mxCell id="NS6MXJYAzT7x-2VZBriJ-243" style="shape=tableRow;horizontal=0;startSize=0;swimlaneHead=0;swimlaneBody=0;strokeColor=inherit;top=0;left=0;bottom=0;right=0;collapsible=0;dropTarget=0;fillColor=none;points=[[0,0.5],[1,0.5]];portConstraint=eastwest;fontSize=16;" vertex="1" parent="NS6MXJYAzT7x-2VZBriJ-219">
          <mxGeometry y="90" width="423" height="20" as="geometry" />
        </mxCell>
        <mxCell id="NS6MXJYAzT7x-2VZBriJ-244" value="function" style="shape=partialRectangle;html=1;whiteSpace=wrap;connectable=0;strokeColor=inherit;overflow=hidden;fillColor=none;top=0;left=0;bottom=0;right=0;pointerEvents=1;fontSize=11;" vertex="1" parent="NS6MXJYAzT7x-2VZBriJ-243">
          <mxGeometry width="106" height="20" as="geometry">
            <mxRectangle width="106" height="20" as="alternateBounds" />
          </mxGeometry>
        </mxCell>
        <mxCell id="NS6MXJYAzT7x-2VZBriJ-245" value="SUM" style="shape=partialRectangle;html=1;whiteSpace=wrap;connectable=0;strokeColor=inherit;overflow=hidden;fillColor=none;top=0;left=0;bottom=0;right=0;pointerEvents=1;fontSize=11;" vertex="1" parent="NS6MXJYAzT7x-2VZBriJ-243">
          <mxGeometry x="106" width="106" height="20" as="geometry">
            <mxRectangle width="106" height="20" as="alternateBounds" />
          </mxGeometry>
        </mxCell>
        <mxCell id="NS6MXJYAzT7x-2VZBriJ-246" value="amount" style="shape=partialRectangle;html=1;whiteSpace=wrap;connectable=0;strokeColor=inherit;overflow=hidden;fillColor=none;top=0;left=0;bottom=0;right=0;pointerEvents=1;fontSize=11;" vertex="1" parent="NS6MXJYAzT7x-2VZBriJ-243">
          <mxGeometry x="212" width="105" height="20" as="geometry">
            <mxRectangle width="105" height="20" as="alternateBounds" />
          </mxGeometry>
        </mxCell>
        <mxCell id="NS6MXJYAzT7x-2VZBriJ-247" style="shape=partialRectangle;html=1;whiteSpace=wrap;connectable=0;strokeColor=inherit;overflow=hidden;fillColor=none;top=0;left=0;bottom=0;right=0;pointerEvents=1;fontSize=11;" vertex="1" parent="NS6MXJYAzT7x-2VZBriJ-243">
          <mxGeometry x="317" width="106" height="20" as="geometry">
            <mxRectangle width="106" height="20" as="alternateBounds" />
          </mxGeometry>
        </mxCell>
        <mxCell id="NS6MXJYAzT7x-2VZBriJ-238" style="shape=tableRow;horizontal=0;startSize=0;swimlaneHead=0;swimlaneBody=0;strokeColor=inherit;top=0;left=0;bottom=0;right=0;collapsible=0;dropTarget=0;fillColor=none;points=[[0,0.5],[1,0.5]];portConstraint=eastwest;fontSize=16;" vertex="1" parent="NS6MXJYAzT7x-2VZBriJ-219">
          <mxGeometry y="110" width="423" height="20" as="geometry" />
        </mxCell>
        <mxCell id="NS6MXJYAzT7x-2VZBriJ-239" value="expression" style="shape=partialRectangle;html=1;whiteSpace=wrap;connectable=0;strokeColor=inherit;overflow=hidden;fillColor=none;top=0;left=0;bottom=0;right=0;pointerEvents=1;fontSize=11;" vertex="1" parent="NS6MXJYAzT7x-2VZBriJ-238">
          <mxGeometry width="106" height="20" as="geometry">
            <mxRectangle width="106" height="20" as="alternateBounds" />
          </mxGeometry>
        </mxCell>
        <mxCell id="NS6MXJYAzT7x-2VZBriJ-240" value="count(*)" style="shape=partialRectangle;html=1;whiteSpace=wrap;connectable=0;strokeColor=inherit;overflow=hidden;fillColor=none;top=0;left=0;bottom=0;right=0;pointerEvents=1;fontSize=11;" vertex="1" parent="NS6MXJYAzT7x-2VZBriJ-238">
          <mxGeometry x="106" width="106" height="20" as="geometry">
            <mxRectangle width="106" height="20" as="alternateBounds" />
          </mxGeometry>
        </mxCell>
        <mxCell id="NS6MXJYAzT7x-2VZBriJ-241" style="shape=partialRectangle;html=1;whiteSpace=wrap;connectable=0;strokeColor=inherit;overflow=hidden;fillColor=none;top=0;left=0;bottom=0;right=0;pointerEvents=1;fontSize=11;" vertex="1" parent="NS6MXJYAzT7x-2VZBriJ-238">
          <mxGeometry x="212" width="105" height="20" as="geometry">
            <mxRectangle width="105" height="20" as="alternateBounds" />
          </mxGeometry>
        </mxCell>
        <mxCell id="NS6MXJYAzT7x-2VZBriJ-242" style="shape=partialRectangle;html=1;whiteSpace=wrap;connectable=0;strokeColor=inherit;overflow=hidden;fillColor=none;top=0;left=0;bottom=0;right=0;pointerEvents=1;fontSize=11;" vertex="1" parent="NS6MXJYAzT7x-2VZBriJ-238">
          <mxGeometry x="317" width="106" height="20" as="geometry">
            <mxRectangle width="106" height="20" as="alternateBounds" />
          </mxGeometry>
        </mxCell>
        <mxCell id="NS6MXJYAzT7x-2VZBriJ-253" value="&lt;span style=&quot;font-weight: 700;&quot;&gt;INPUT&lt;/span&gt;" style="swimlane;fontStyle=0;childLayout=stackLayout;horizontal=1;startSize=26;fillColor=none;horizontalStack=0;resizeParent=1;resizeParentMax=0;resizeLast=0;collapsible=1;marginBottom=0;whiteSpace=wrap;html=1;" vertex="1" parent="1">
          <mxGeometry x="38" y="19" width="194" height="78" as="geometry">
            <mxRectangle x="365" y="13" width="71" height="26" as="alternateBounds" />
          </mxGeometry>
        </mxCell>
        <mxCell id="NS6MXJYAzT7x-2VZBriJ-254" value="+ TYPE: TABLE" style="text;strokeColor=none;fillColor=none;align=left;verticalAlign=top;spacingLeft=4;spacingRight=4;overflow=hidden;rotatable=0;points=[[0,0.5],[1,0.5]];portConstraint=eastwest;whiteSpace=wrap;html=1;" vertex="1" parent="NS6MXJYAzT7x-2VZBriJ-253">
          <mxGeometry y="26" width="194" height="26" as="geometry" />
        </mxCell>
        <mxCell id="NS6MXJYAzT7x-2VZBriJ-256" value="+ VALUE: public.transactions" style="text;strokeColor=none;fillColor=none;align=left;verticalAlign=top;spacingLeft=4;spacingRight=4;overflow=hidden;rotatable=0;points=[[0,0.5],[1,0.5]];portConstraint=eastwest;whiteSpace=wrap;html=1;" vertex="1" parent="NS6MXJYAzT7x-2VZBriJ-253">
          <mxGeometry y="52" width="194" height="26" as="geometry" />
        </mxCell>
      </root>
    </mxGraphModel>
  </diagram>
</mxfile>
